# xmcd CD database file
#
# Track frame offsets:
#	150
#	16402
#	38693
#	65164
#	76550
#	105152
#	124748
#	145636
#
# Disc length: 2284 seconds
#
# Revision: 2
# Processed by: cddbd v1.5.2PL0 Copyright (c) Steve Scherf et al.
# Submitted via: CDex 1.70beta2
#
DISCID=5708ea08
DTITLE=Kevin Smith and the Seven Storey Jumpers - "...the souls of men, the breath of kings..."
DYEAR=2008
DGENRE=Blues
TTITLE0=I can't speak your name
TTITLE1=24 empty barstools
TTITLE2=The wretched tale of Omaha Bridges and Fanny Discrete
TTITLE3=Mr Smith worries about Heroine
TTITLE4=Many things
TTITLE5=Henry Jones
TTITLE6=Dirty love thug blues
TTITLE7=Pornography
EXTD=YEAR: 2008
EXTT0=
EXTT1=
EXTT2=
EXTT3=
EXTT4=
EXTT5=
EXTT6=
EXTT7=
PLAYORDER=
